# Blender v3.1.2 OBJ File: ''
# www.blender.org
mtllib ceiling.mtl
o Cube_Cube.006
v 0.000000 0.000000 0.000000
v 0.000000 0.000000 0.000000
v 0.000000 0.000000 0.000000
v 0.000000 0.000000 0.000000
v 0.000000 0.000000 0.000000
v 0.000000 0.000000 0.000000
v 0.000000 0.000000 0.000000
v 0.000000 0.000000 0.000000
vt 0.375000 0.000000
vt 0.625000 0.250000
vt 0.375000 0.250000
vt 0.625000 0.500000
vt 0.375000 0.500000
vt 0.625000 0.750000
vt 0.375000 0.750000
vt 0.625000 1.000000
vt 0.375000 1.000000
vt 0.125000 0.500000
vt 0.125000 0.750000
vt 0.875000 0.750000
vt 0.625000 0.000000
vt 0.875000 0.500000
vn 0.0000 0.0000 1.0000
usemtl None
s off
f 1/1/1 4/2/1 3/3/1
f 3/3/1 8/4/1 7/5/1
f 7/5/1 6/6/1 5/7/1
f 5/7/1 2/8/1 1/9/1
f 3/10/1 5/7/1 1/11/1
f 8/4/1 2/12/1 6/6/1
f 1/1/1 2/13/1 4/2/1
f 3/3/1 4/2/1 8/4/1
f 7/5/1 8/4/1 6/6/1
f 5/7/1 6/6/1 2/8/1
f 3/10/1 7/5/1 5/7/1
f 8/4/1 4/14/1 2/12/1
o Cube_Cube.006
v 0.000000 0.000000 0.000000
v 0.000000 0.000000 0.000000
v 0.000000 0.000000 0.000000
v 0.000000 0.000000 0.000000
v 0.000000 0.000000 0.000000
v 0.000000 0.000000 0.000000
v 0.000000 0.000000 0.000000
v 0.000000 0.000000 0.000000
vt 0.375000 0.000000
vt 0.625000 0.250000
vt 0.375000 0.250000
vt 0.625000 0.500000
vt 0.375000 0.500000
vt 0.625000 0.750000
vt 0.375000 0.750000
vt 0.625000 1.000000
vt 0.375000 1.000000
vt 0.125000 0.500000
vt 0.125000 0.750000
vt 0.875000 0.750000
vt 0.625000 0.000000
vt 0.875000 0.500000
vn 0.0000 0.0000 1.0000
usemtl None.002
s off
f 9/15/2 10/16/2 11/17/2
f 11/17/2 12/18/2 13/19/2
f 13/19/2 14/20/2 15/21/2
f 15/21/2 16/22/2 9/23/2
f 11/24/2 15/21/2 9/25/2
f 12/18/2 16/26/2 14/20/2
f 9/15/2 16/27/2 10/16/2
f 11/17/2 10/16/2 12/18/2
f 13/19/2 12/18/2 14/20/2
f 15/21/2 14/20/2 16/22/2
f 11/24/2 13/19/2 15/21/2
f 12/18/2 10/28/2 16/26/2
o Cube.001_Cube.026
v 4.017932 12.366154 2.377984
v 4.017932 12.366154 2.622016
v 4.017932 -12.366154 2.377984
v 4.017932 -12.366154 2.622016
v -4.017932 12.366154 2.377984
v -4.017932 12.366154 2.622016
v -4.017932 -12.366154 2.377984
v -4.017932 -12.366154 2.622016
vt 0.625000 0.000000
vt 0.375000 0.250000
vt 0.375000 0.000000
vt 0.625000 0.250000
vt 0.375000 0.500000
vt 0.625000 0.500000
vt 0.375000 0.750000
vt 0.625000 0.750000
vt 0.375000 1.000000
vt 0.125000 0.750000
vt 0.125000 0.500000
vt 0.875000 0.500000
vt 0.625000 1.000000
vt 0.875000 0.750000
vn 1.0000 0.0000 0.0000
vn 0.0000 -1.0000 0.0000
vn -1.0000 0.0000 0.0000
vn 0.0000 1.0000 0.0000
vn 0.0000 0.0000 -1.0000
vn 0.0000 0.0000 1.0000
usemtl None
s off
f 18/29/3 19/30/3 17/31/3
f 20/32/4 23/33/4 19/30/4
f 24/34/5 21/35/5 23/33/5
f 22/36/6 17/37/6 21/35/6
f 23/33/7 17/38/7 19/39/7
f 20/40/8 22/36/8 24/34/8
f 18/29/3 20/32/3 19/30/3
f 20/32/4 24/34/4 23/33/4
f 24/34/5 22/36/5 21/35/5
f 22/36/6 18/41/6 17/37/6
f 23/33/7 21/35/7 17/38/7
f 20/40/8 18/42/8 22/36/8
