# Blender v3.1.2 OBJ File: ''
# www.blender.org
mtllib ground.mtl
o Cube_Cube.006
v 0.000000 0.000000 0.000000
v 0.000000 0.000000 0.000000
v 0.000000 0.000000 0.000000
v 0.000000 0.000000 0.000000
v 0.000000 0.000000 0.000000
v 0.000000 0.000000 0.000000
v 0.000000 0.000000 0.000000
v 0.000000 0.000000 0.000000
vt 0.375000 0.000000
vt 0.625000 0.250000
vt 0.375000 0.250000
vt 0.625000 0.500000
vt 0.375000 0.500000
vt 0.625000 0.750000
vt 0.375000 0.750000
vt 0.625000 1.000000
vt 0.375000 1.000000
vt 0.125000 0.500000
vt 0.125000 0.750000
vt 0.875000 0.750000
vt 0.625000 0.000000
vt 0.875000 0.500000
vn 0.0000 0.0000 1.0000
usemtl None
s off
f 1/1/1 4/2/1 3/3/1
f 3/3/1 8/4/1 7/5/1
f 7/5/1 6/6/1 5/7/1
f 5/7/1 2/8/1 1/9/1
f 3/10/1 5/7/1 1/11/1
f 8/4/1 2/12/1 6/6/1
f 1/1/1 2/13/1 4/2/1
f 3/3/1 4/2/1 8/4/1
f 7/5/1 8/4/1 6/6/1
f 5/7/1 6/6/1 2/8/1
f 3/10/1 7/5/1 5/7/1
f 8/4/1 4/14/1 2/12/1
o Cube_Cube.006
v 0.000000 0.000000 0.000000
v 0.000000 0.000000 0.000000
v 0.000000 0.000000 0.000000
v 0.000000 0.000000 0.000000
v 0.000000 0.000000 0.000000
v 0.000000 0.000000 0.000000
v 0.000000 0.000000 0.000000
v 0.000000 0.000000 0.000000
vt 0.375000 0.000000
vt 0.625000 0.250000
vt 0.375000 0.250000
vt 0.625000 0.500000
vt 0.375000 0.500000
vt 0.625000 0.750000
vt 0.375000 0.750000
vt 0.625000 1.000000
vt 0.375000 1.000000
vt 0.125000 0.500000
vt 0.125000 0.750000
vt 0.875000 0.750000
vt 0.625000 0.000000
vt 0.875000 0.500000
vn 0.0000 0.0000 1.0000
usemtl None.002
s off
f 9/15/2 10/16/2 11/17/2
f 11/17/2 12/18/2 13/19/2
f 13/19/2 14/20/2 15/21/2
f 15/21/2 16/22/2 9/23/2
f 11/24/2 15/21/2 9/25/2
f 12/18/2 16/26/2 14/20/2
f 9/15/2 16/27/2 10/16/2
f 11/17/2 10/16/2 12/18/2
f 13/19/2 12/18/2 14/20/2
f 15/21/2 14/20/2 16/22/2
f 11/24/2 13/19/2 15/21/2
f 12/18/2 10/28/2 16/26/2
o Cube_Cube.002
v 0.000000 0.000000 0.000000
v 0.000000 0.000000 0.000000
v 0.000000 0.000000 0.000000
v 0.000000 0.000000 0.000000
v 0.000000 0.000000 0.000000
v 0.000000 0.000000 0.000000
v 0.000000 0.000000 0.000000
v 0.000000 0.000000 0.000000
vt 0.375000 0.000000
vt 0.625000 0.250000
vt 0.375000 0.250000
vt 0.625000 0.500000
vt 0.375000 0.500000
vt 0.625000 0.750000
vt 0.375000 0.750000
vt 0.625000 1.000000
vt 0.375000 1.000000
vt 0.125000 0.500000
vt 0.125000 0.750000
vt 0.875000 0.750000
vt 0.625000 0.000000
vt 0.875000 0.500000
vn 0.0000 0.0000 1.0000
usemtl None.003
s 1
f 17/29/3 18/30/3 19/31/3
f 19/31/3 20/32/3 21/33/3
f 21/33/3 22/34/3 23/35/3
f 23/35/3 24/36/3 17/37/3
f 19/38/3 23/35/3 17/39/3
f 20/32/3 24/40/3 22/34/3
f 17/29/3 24/41/3 18/30/3
f 19/31/3 18/30/3 20/32/3
f 21/33/3 20/32/3 22/34/3
f 23/35/3 22/34/3 24/36/3
f 19/38/3 21/33/3 23/35/3
f 20/32/3 18/42/3 24/40/3
o Cube.001_Cube.001
v -1.234056 -11.955443 0.000000
v -1.234056 11.955443 0.000000
v -1.234056 -11.955443 0.000000
v -1.234056 11.955443 0.000000
v 1.234056 11.955443 0.000000
v 1.234056 11.955443 0.000000
v 1.234056 -11.955443 0.000000
v 1.234056 -11.955443 0.000000
vt 0.625000 0.000000
vt 0.375000 0.250000
vt 0.375000 0.000000
vt 0.625000 0.250000
vt 0.375000 0.500000
vt 0.625000 0.500000
vt 0.375000 0.750000
vt 0.625000 0.750000
vt 0.375000 1.000000
vt 0.125000 0.750000
vt 0.125000 0.500000
vt 0.875000 0.500000
vt 0.625000 1.000000
vt 0.875000 0.750000
vn 0.0000 0.0000 1.0000
vn 0.0000 0.0000 -1.0000
usemtl None.003
s 1
f 25/43/4 26/44/4 27/45/4
f 28/46/4 29/47/4 26/44/4
f 30/48/4 31/49/4 29/47/4
f 32/50/4 27/51/4 31/49/4
f 29/47/5 27/52/5 26/53/5
f 28/54/4 32/50/4 30/48/4
f 25/43/4 28/46/4 26/44/4
f 28/46/4 30/48/4 29/47/4
f 30/48/4 32/50/4 31/49/4
f 32/50/4 25/55/4 27/51/4
f 29/47/5 31/49/5 27/52/5
f 28/54/4 25/56/4 32/50/4
o Cube_Cube.006.000
v 0.000000 0.000000 0.000000
v 0.000000 0.000000 0.000000
v 0.000000 0.000000 0.000000
v 0.000000 0.000000 0.000000
v 0.000000 0.000000 0.000000
v 0.000000 0.000000 0.000000
v 0.000000 0.000000 0.000000
v 0.000000 0.000000 0.000000
vt 0.375000 0.000000
vt 0.625000 0.250000
vt 0.375000 0.250000
vt 0.625000 0.500000
vt 0.375000 0.500000
vt 0.625000 0.750000
vt 0.375000 0.750000
vt 0.625000 1.000000
vt 0.375000 1.000000
vt 0.125000 0.500000
vt 0.125000 0.750000
vt 0.875000 0.750000
vt 0.625000 0.000000
vt 0.875000 0.500000
vn 0.0000 0.0000 1.0000
usemtl None.004
s 1
f 33/57/6 34/58/6 35/59/6
f 35/59/6 36/60/6 37/61/6
f 37/61/6 38/62/6 39/63/6
f 39/63/6 40/64/6 33/65/6
f 35/66/6 39/63/6 33/67/6
f 36/60/6 40/68/6 38/62/6
f 33/57/6 40/69/6 34/58/6
f 35/59/6 34/58/6 36/60/6
f 37/61/6 36/60/6 38/62/6
f 39/63/6 38/62/6 40/64/6
f 35/66/6 37/61/6 39/63/6
f 36/60/6 34/70/6 40/68/6
