# Blender v3.1.2 OBJ File: ''
# www.blender.org
mtllib sidewall.mtl
o Cube_Cube.006
v 0.000000 0.000000 0.000000
v 0.000000 0.000000 0.000000
v 0.000000 0.000000 0.000000
v 0.000000 0.000000 0.000000
v 0.000000 0.000000 0.000000
v 0.000000 0.000000 0.000000
v 0.000000 0.000000 0.000000
v 0.000000 0.000000 0.000000
vt 0.375000 0.000000
vt 0.625000 0.250000
vt 0.375000 0.250000
vt 0.625000 0.500000
vt 0.375000 0.500000
vt 0.625000 0.750000
vt 0.375000 0.750000
vt 0.625000 1.000000
vt 0.375000 1.000000
vt 0.125000 0.500000
vt 0.125000 0.750000
vt 0.875000 0.750000
vt 0.625000 0.000000
vt 0.875000 0.500000
vn 0.0000 0.0000 1.0000
usemtl None
s 1
f 1/1/1 2/2/1 3/3/1
f 3/3/1 4/4/1 5/5/1
f 5/5/1 6/6/1 7/7/1
f 7/7/1 8/8/1 1/9/1
f 3/10/1 7/7/1 1/11/1
f 4/4/1 8/12/1 6/6/1
f 1/1/1 8/13/1 2/2/1
f 3/3/1 2/2/1 4/4/1
f 5/5/1 4/4/1 6/6/1
f 7/7/1 6/6/1 8/8/1
f 3/10/1 5/5/1 7/7/1
f 4/4/1 2/14/1 8/12/1
o Cube_Cube.006.000
v 0.000000 0.000000 0.000000
v 0.000000 0.000000 0.000000
v 0.000000 0.000000 0.000000
v 0.000000 0.000000 0.000000
v 0.000000 0.000000 0.000000
v 0.000000 0.000000 0.000000
v 0.000000 0.000000 0.000000
v 0.000000 0.000000 0.000000
vt 0.375000 0.000000
vt 0.625000 0.250000
vt 0.375000 0.250000
vt 0.625000 0.500000
vt 0.375000 0.500000
vt 0.625000 0.750000
vt 0.375000 0.750000
vt 0.625000 1.000000
vt 0.375000 1.000000
vt 0.125000 0.500000
vt 0.125000 0.750000
vt 0.875000 0.750000
vt 0.625000 0.000000
vt 0.875000 0.500000
vn 0.0000 0.0000 1.0000
usemtl None.002
s 1
f 9/15/2 10/16/2 11/17/2
f 11/17/2 12/18/2 13/19/2
f 13/19/2 14/20/2 15/21/2
f 15/21/2 16/22/2 9/23/2
f 11/24/2 15/21/2 9/25/2
f 12/18/2 16/26/2 14/20/2
f 9/15/2 16/27/2 10/16/2
f 11/17/2 10/16/2 12/18/2
f 13/19/2 12/18/2 14/20/2
f 15/21/2 14/20/2 16/22/2
f 11/24/2 13/19/2 15/21/2
f 12/18/2 10/28/2 16/26/2
o Cube_Cube.001
v 4.182014 7.436322 0.165269
v 4.182014 7.436322 2.397879
v 4.182014 -6.249776 0.165269
v 4.182014 -6.249776 2.397879
v 3.953866 7.436322 0.165269
v 3.953866 7.436322 2.397879
v 3.953866 -6.249776 0.165269
v 3.953866 -6.249776 2.397879
vt 0.625000 0.000000
vt 0.375000 0.250000
vt 0.375000 0.000000
vt 0.625000 0.250000
vt 0.375000 0.500000
vt 0.625000 0.500000
vt 0.375000 0.750000
vt 0.625000 0.750000
vt 0.375000 1.000000
vt 0.125000 0.750000
vt 0.125000 0.500000
vt 0.875000 0.500000
vt 0.625000 1.000000
vt 0.875000 0.750000
vn 1.0000 0.0000 0.0000
vn 0.0000 -1.0000 0.0000
vn -1.0000 0.0000 0.0000
vn 0.0000 1.0000 0.0000
vn 0.0000 0.0000 -1.0000
vn 0.0000 0.0000 1.0000
usemtl None
s off
f 18/29/3 19/30/3 17/31/3
f 20/32/4 23/33/4 19/30/4
f 24/34/5 21/35/5 23/33/5
f 22/36/6 17/37/6 21/35/6
f 23/33/7 17/38/7 19/39/7
f 20/40/8 22/36/8 24/34/8
f 18/29/3 20/32/3 19/30/3
f 20/32/4 24/34/4 23/33/4
f 24/34/5 22/36/5 21/35/5
f 22/36/6 18/41/6 17/37/6
f 23/33/7 21/35/7 17/38/7
f 20/40/8 18/42/8 22/36/8
o Cube.001_Cube.002
v -3.953866 7.436322 0.165269
v -3.953866 7.436322 2.397879
v -3.953866 -6.249776 0.165269
v -3.953866 -6.249776 2.397879
v -4.182014 7.436322 0.165269
v -4.182014 7.436322 2.397879
v -4.182014 -6.249776 0.165269
v -4.182014 -6.249776 2.397879
vt 0.625000 0.000000
vt 0.375000 0.250000
vt 0.375000 0.000000
vt 0.625000 0.250000
vt 0.375000 0.500000
vt 0.625000 0.500000
vt 0.375000 0.750000
vt 0.625000 0.750000
vt 0.375000 1.000000
vt 0.125000 0.750000
vt 0.125000 0.500000
vt 0.875000 0.500000
vt 0.625000 1.000000
vt 0.875000 0.750000
vn 1.0000 0.0000 0.0000
vn 0.0000 -1.0000 0.0000
vn -1.0000 0.0000 0.0000
vn 0.0000 1.0000 0.0000
vn 0.0000 0.0000 -1.0000
vn 0.0000 0.0000 1.0000
usemtl None
s off
f 26/43/9 27/44/9 25/45/9
f 28/46/10 31/47/10 27/44/10
f 32/48/11 29/49/11 31/47/11
f 30/50/12 25/51/12 29/49/12
f 31/47/13 25/52/13 27/53/13
f 28/54/14 30/50/14 32/48/14
f 26/43/9 28/46/9 27/44/9
f 28/46/10 32/48/10 31/47/10
f 32/48/11 30/50/11 29/49/11
f 30/50/12 26/55/12 25/51/12
f 31/47/13 29/49/13 25/52/13
f 28/54/14 26/56/14 30/50/14
