# Blender v3.1.2 OBJ File: ''
# www.blender.org
mtllib sidewall.mtl
o Cube_Cube.006
v 0.000000 0.000000 0.000000
v 0.000000 0.000000 0.000000
v 0.000000 0.000000 0.000000
v 0.000000 0.000000 0.000000
v 0.000000 0.000000 0.000000
v 0.000000 0.000000 0.000000
v 0.000000 0.000000 0.000000
v 0.000000 0.000000 0.000000
vt 0.375000 0.000000
vt 0.625000 0.250000
vt 0.375000 0.250000
vt 0.625000 0.500000
vt 0.375000 0.500000
vt 0.625000 0.750000
vt 0.375000 0.750000
vt 0.625000 1.000000
vt 0.375000 1.000000
vt 0.125000 0.500000
vt 0.125000 0.750000
vt 0.875000 0.750000
vt 0.625000 0.000000
vt 0.875000 0.500000
vn 0.0000 0.0000 1.0000
usemtl None
s off
f 1/1/1 4/2/1 3/3/1
f 3/3/1 8/4/1 7/5/1
f 7/5/1 6/6/1 5/7/1
f 5/7/1 2/8/1 1/9/1
f 3/10/1 5/7/1 1/11/1
f 8/4/1 2/12/1 6/6/1
f 1/1/1 2/13/1 4/2/1
f 3/3/1 4/2/1 8/4/1
f 7/5/1 8/4/1 6/6/1
f 5/7/1 6/6/1 2/8/1
f 3/10/1 7/5/1 5/7/1
f 8/4/1 4/14/1 2/12/1
o Cube_Cube.006
v 0.000000 0.000000 0.000000
v 0.000000 0.000000 0.000000
v 0.000000 0.000000 0.000000
v 0.000000 0.000000 0.000000
v 0.000000 0.000000 0.000000
v 0.000000 0.000000 0.000000
v 0.000000 0.000000 0.000000
v 0.000000 0.000000 0.000000
vt 0.375000 0.000000
vt 0.625000 0.250000
vt 0.375000 0.250000
vt 0.625000 0.500000
vt 0.375000 0.500000
vt 0.625000 0.750000
vt 0.375000 0.750000
vt 0.625000 1.000000
vt 0.375000 1.000000
vt 0.125000 0.500000
vt 0.125000 0.750000
vt 0.875000 0.750000
vt 0.625000 0.000000
vt 0.875000 0.500000
vn 0.0000 0.0000 1.0000
usemtl None.002
s off
f 9/15/2 10/16/2 11/17/2
f 11/17/2 12/18/2 13/19/2
f 13/19/2 14/20/2 15/21/2
f 15/21/2 16/22/2 9/23/2
f 11/24/2 15/21/2 9/25/2
f 12/18/2 16/26/2 14/20/2
f 9/15/2 16/27/2 10/16/2
f 11/17/2 10/16/2 12/18/2
f 13/19/2 12/18/2 14/20/2
f 15/21/2 14/20/2 16/22/2
f 11/24/2 13/19/2 15/21/2
f 12/18/2 10/28/2 16/26/2
o Cube.003_Cube.021
v -3.981950 5.995152 0.451452
v -3.981950 5.995152 2.398631
v -3.981950 -5.995152 0.451452
v -3.981950 -5.995152 2.398631
v -3.981950 5.995152 0.451452
v -3.981950 5.995152 2.398631
v -3.981950 -5.995152 0.451452
v -3.981950 -5.995152 2.398631
vt 0.625000 0.000000
vt 0.375000 0.250000
vt 0.375000 0.000000
vt 0.625000 0.250000
vt 0.375000 0.500000
vt 0.625000 0.500000
vt 0.375000 0.750000
vt 0.625000 0.750000
vt 0.375000 1.000000
vt 0.125000 0.750000
vt 0.125000 0.500000
vt 0.875000 0.500000
vt 0.625000 1.000000
vt 0.875000 0.750000
vn 1.0000 0.0000 0.0000
vn 0.0000 0.0000 1.0000
vn -1.0000 0.0000 0.0000
usemtl None
s off
f 18/29/3 19/30/3 17/31/3
f 20/32/4 23/33/4 19/30/4
f 24/34/5 21/35/5 23/33/5
f 22/36/4 17/37/4 21/35/4
f 23/33/4 17/38/4 19/39/4
f 20/40/4 22/36/4 24/34/4
f 18/29/3 20/32/3 19/30/3
f 20/32/4 24/34/4 23/33/4
f 24/34/5 22/36/5 21/35/5
f 22/36/4 18/41/4 17/37/4
f 23/33/4 21/35/4 17/38/4
f 20/40/4 18/42/4 22/36/4
o Cube.004_Cube.025
v 3.981950 5.995152 0.451452
v 3.981950 5.995152 2.398631
v 3.981950 -5.995152 0.451452
v 3.981950 -5.995152 2.398631
v 3.981950 5.995152 0.451452
v 3.981950 5.995152 2.398631
v 3.981950 -5.995152 0.451452
v 3.981950 -5.995152 2.398631
vt 0.625000 0.000000
vt 0.375000 0.250000
vt 0.375000 0.000000
vt 0.625000 0.250000
vt 0.375000 0.500000
vt 0.625000 0.500000
vt 0.375000 0.750000
vt 0.625000 0.750000
vt 0.375000 1.000000
vt 0.125000 0.750000
vt 0.125000 0.500000
vt 0.875000 0.500000
vt 0.625000 1.000000
vt 0.875000 0.750000
vn 1.0000 0.0000 0.0000
vn 0.0000 0.0000 1.0000
vn -1.0000 0.0000 0.0000
usemtl None
s off
f 26/43/6 27/44/6 25/45/6
f 28/46/7 31/47/7 27/44/7
f 32/48/8 29/49/8 31/47/8
f 30/50/7 25/51/7 29/49/7
f 31/47/7 25/52/7 27/53/7
f 28/54/7 30/50/7 32/48/7
f 26/43/6 28/46/6 27/44/6
f 28/46/7 32/48/7 31/47/7
f 32/48/8 30/50/8 29/49/8
f 30/50/7 26/55/7 25/51/7
f 31/47/7 29/49/7 25/52/7
f 28/54/7 26/56/7 30/50/7
