# Blender v3.1.2 OBJ File: ''
# www.blender.org
mtllib trapdoor.mtl
o Cube_Cube.001
v 0.000000 0.000000 0.000000
v 0.000000 0.000000 0.000000
v 0.000000 0.000000 0.000000
v 0.000000 0.000000 0.000000
v 0.000000 0.000000 0.000000
v 0.000000 0.000000 0.000000
v 0.000000 0.000000 0.000000
v 0.000000 0.000000 0.000000
vt 0.375000 0.000000
vt 0.625000 0.250000
vt 0.375000 0.250000
vt 0.625000 0.500000
vt 0.375000 0.500000
vt 0.625000 0.750000
vt 0.375000 0.750000
vt 0.625000 1.000000
vt 0.375000 1.000000
vt 0.125000 0.500000
vt 0.125000 0.750000
vt 0.875000 0.750000
vt 0.625000 0.000000
vt 0.875000 0.500000
vn 0.0000 0.0000 1.0000
usemtl None.001
s 1
f 1/1/1 2/2/1 3/3/1
f 3/3/1 4/4/1 5/5/1
f 5/5/1 6/6/1 7/7/1
f 7/7/1 8/8/1 1/9/1
f 3/10/1 7/7/1 1/11/1
f 4/4/1 8/12/1 6/6/1
f 1/1/1 8/13/1 2/2/1
f 3/3/1 2/2/1 4/4/1
f 5/5/1 4/4/1 6/6/1
f 7/7/1 6/6/1 8/8/1
f 3/10/1 5/5/1 7/7/1
f 4/4/1 2/14/1 8/12/1
o Cube_Cube.006.001
v 0.000000 0.000000 0.000000
v 0.000000 0.000000 0.000000
v 0.000000 0.000000 0.000000
v 0.000000 0.000000 0.000000
v 0.000000 0.000000 0.000000
v 0.000000 0.000000 0.000000
v 0.000000 0.000000 0.000000
v 0.000000 0.000000 0.000000
vt 0.375000 0.000000
vt 0.625000 0.250000
vt 0.375000 0.250000
vt 0.625000 0.500000
vt 0.375000 0.500000
vt 0.625000 0.750000
vt 0.375000 0.750000
vt 0.625000 1.000000
vt 0.375000 1.000000
vt 0.125000 0.500000
vt 0.125000 0.750000
vt 0.875000 0.750000
vt 0.625000 0.000000
vt 0.875000 0.500000
vn 0.0000 0.0000 1.0000
usemtl None.003
s 1
f 9/15/2 10/16/2 11/17/2
f 11/17/2 12/18/2 13/19/2
f 13/19/2 14/20/2 15/21/2
f 15/21/2 16/22/2 9/23/2
f 11/24/2 15/21/2 9/25/2
f 12/18/2 16/26/2 14/20/2
f 9/15/2 16/27/2 10/16/2
f 11/17/2 10/16/2 12/18/2
f 13/19/2 12/18/2 14/20/2
f 15/21/2 14/20/2 16/22/2
f 11/24/2 13/19/2 15/21/2
f 12/18/2 10/28/2 16/26/2
o Cube_Cube.002
v 0.000000 0.000000 0.000000
v 0.000000 0.000000 0.000000
v 0.000000 0.000000 0.000000
v 0.000000 0.000000 0.000000
v 0.000000 0.000000 0.000000
v 0.000000 0.000000 0.000000
v 0.000000 0.000000 0.000000
v 0.000000 0.000000 0.000000
vt 0.375000 0.000000
vt 0.625000 0.250000
vt 0.375000 0.250000
vt 0.625000 0.500000
vt 0.375000 0.500000
vt 0.625000 0.750000
vt 0.375000 0.750000
vt 0.625000 1.000000
vt 0.375000 1.000000
vt 0.125000 0.500000
vt 0.125000 0.750000
vt 0.875000 0.750000
vt 0.625000 0.000000
vt 0.875000 0.500000
vn 0.0000 0.0000 1.0000
usemtl None.004
s 1
f 17/29/3 18/30/3 19/31/3
f 19/31/3 20/32/3 21/33/3
f 21/33/3 22/34/3 23/35/3
f 23/35/3 24/36/3 17/37/3
f 19/38/3 23/35/3 17/39/3
f 20/32/3 24/40/3 22/34/3
f 17/29/3 24/41/3 18/30/3
f 19/31/3 18/30/3 20/32/3
f 21/33/3 20/32/3 22/34/3
f 23/35/3 22/34/3 24/36/3
f 19/38/3 21/33/3 23/35/3
f 20/32/3 18/42/3 24/40/3
o Cube_Cube.006.002
v 0.000000 0.000000 0.000000
v 0.000000 0.000000 0.000000
v 0.000000 0.000000 0.000000
v 0.000000 0.000000 0.000000
v 0.000000 0.000000 0.000000
v 0.000000 0.000000 0.000000
v 0.000000 0.000000 0.000000
v 0.000000 0.000000 0.000000
vt 0.375000 0.000000
vt 0.625000 0.250000
vt 0.375000 0.250000
vt 0.625000 0.500000
vt 0.375000 0.500000
vt 0.625000 0.750000
vt 0.375000 0.750000
vt 0.625000 1.000000
vt 0.375000 1.000000
vt 0.125000 0.500000
vt 0.125000 0.750000
vt 0.875000 0.750000
vt 0.625000 0.000000
vt 0.875000 0.500000
vn 0.0000 0.0000 1.0000
usemtl None.005
s 1
f 25/43/4 26/44/4 27/45/4
f 27/45/4 28/46/4 29/47/4
f 29/47/4 30/48/4 31/49/4
f 31/49/4 32/50/4 25/51/4
f 27/52/4 31/49/4 25/53/4
f 28/46/4 32/54/4 30/48/4
f 25/43/4 32/55/4 26/44/4
f 27/45/4 26/44/4 28/46/4
f 29/47/4 28/46/4 30/48/4
f 31/49/4 30/48/4 32/50/4
f 27/52/4 29/47/4 31/49/4
f 28/46/4 26/56/4 32/54/4
o Cube_Cube.003
v 0.000000 0.000000 0.000000
v 0.000000 0.000000 0.000000
v 0.000000 0.000000 0.000000
v 0.000000 0.000000 0.000000
v 0.000000 0.000000 0.000000
v 0.000000 0.000000 0.000000
v 0.000000 0.000000 0.000000
v 0.000000 0.000000 0.000000
vt 0.375000 0.000000
vt 0.625000 0.250000
vt 0.375000 0.250000
vt 0.625000 0.500000
vt 0.375000 0.500000
vt 0.625000 0.750000
vt 0.375000 0.750000
vt 0.625000 1.000000
vt 0.375000 1.000000
vt 0.125000 0.500000
vt 0.125000 0.750000
vt 0.875000 0.750000
vt 0.625000 0.000000
vt 0.875000 0.500000
vn 0.0000 0.0000 1.0000
usemtl None.006
s 1
f 33/57/5 34/58/5 35/59/5
f 35/59/5 36/60/5 37/61/5
f 37/61/5 38/62/5 39/63/5
f 39/63/5 40/64/5 33/65/5
f 35/66/5 39/63/5 33/67/5
f 36/60/5 40/68/5 38/62/5
f 33/57/5 40/69/5 34/58/5
f 35/59/5 34/58/5 36/60/5
f 37/61/5 36/60/5 38/62/5
f 39/63/5 38/62/5 40/64/5
f 35/66/5 37/61/5 39/63/5
f 36/60/5 34/70/5 40/68/5
o Cube_Cube.006.003
v 0.000000 0.000000 0.000000
v 0.000000 0.000000 0.000000
v 0.000000 0.000000 0.000000
v 0.000000 0.000000 0.000000
v 0.000000 0.000000 0.000000
v 0.000000 0.000000 0.000000
v 0.000000 0.000000 0.000000
v 0.000000 0.000000 0.000000
vt 0.375000 0.000000
vt 0.625000 0.250000
vt 0.375000 0.250000
vt 0.625000 0.500000
vt 0.375000 0.500000
vt 0.625000 0.750000
vt 0.375000 0.750000
vt 0.625000 1.000000
vt 0.375000 1.000000
vt 0.125000 0.500000
vt 0.125000 0.750000
vt 0.875000 0.750000
vt 0.625000 0.000000
vt 0.875000 0.500000
vn 0.0000 0.0000 1.0000
usemtl None.007
s 1
f 41/71/6 42/72/6 43/73/6
f 43/73/6 44/74/6 45/75/6
f 45/75/6 46/76/6 47/77/6
f 47/77/6 48/78/6 41/79/6
f 43/80/6 47/77/6 41/81/6
f 44/74/6 48/82/6 46/76/6
f 41/71/6 48/83/6 42/72/6
f 43/73/6 42/72/6 44/74/6
f 45/75/6 44/74/6 46/76/6
f 47/77/6 46/76/6 48/78/6
f 43/80/6 45/75/6 47/77/6
f 44/74/6 42/84/6 48/82/6
o Cube_Cube.004
v 0.000000 0.000000 0.000000
v 0.000000 0.000000 0.000000
v 0.000000 0.000000 0.000000
v 0.000000 0.000000 0.000000
v 0.000000 0.000000 0.000000
v 0.000000 0.000000 0.000000
v 0.000000 0.000000 0.000000
v 0.000000 0.000000 0.000000
vt 0.375000 0.000000
vt 0.625000 0.250000
vt 0.375000 0.250000
vt 0.625000 0.500000
vt 0.375000 0.500000
vt 0.625000 0.750000
vt 0.375000 0.750000
vt 0.625000 1.000000
vt 0.375000 1.000000
vt 0.125000 0.500000
vt 0.125000 0.750000
vt 0.875000 0.750000
vt 0.625000 0.000000
vt 0.875000 0.500000
vn 0.0000 0.0000 1.0000
usemtl None.008
s 1
f 49/85/7 50/86/7 51/87/7
f 51/87/7 52/88/7 53/89/7
f 53/89/7 54/90/7 55/91/7
f 55/91/7 56/92/7 49/93/7
f 51/94/7 55/91/7 49/95/7
f 52/88/7 56/96/7 54/90/7
f 49/85/7 56/97/7 50/86/7
f 51/87/7 50/86/7 52/88/7
f 53/89/7 52/88/7 54/90/7
f 55/91/7 54/90/7 56/92/7
f 51/94/7 53/89/7 55/91/7
f 52/88/7 50/98/7 56/96/7
o Cube_Cube.006.004
v 0.000000 0.000000 0.000000
v 0.000000 0.000000 0.000000
v 0.000000 0.000000 0.000000
v 0.000000 0.000000 0.000000
v 0.000000 0.000000 0.000000
v 0.000000 0.000000 0.000000
v 0.000000 0.000000 0.000000
v 0.000000 0.000000 0.000000
vt 0.375000 0.000000
vt 0.625000 0.250000
vt 0.375000 0.250000
vt 0.625000 0.500000
vt 0.375000 0.500000
vt 0.625000 0.750000
vt 0.375000 0.750000
vt 0.625000 1.000000
vt 0.375000 1.000000
vt 0.125000 0.500000
vt 0.125000 0.750000
vt 0.875000 0.750000
vt 0.625000 0.000000
vt 0.875000 0.500000
vn 0.0000 0.0000 1.0000
usemtl None.009
s 1
f 57/99/8 58/100/8 59/101/8
f 59/101/8 60/102/8 61/103/8
f 61/103/8 62/104/8 63/105/8
f 63/105/8 64/106/8 57/107/8
f 59/108/8 63/105/8 57/109/8
f 60/102/8 64/110/8 62/104/8
f 57/99/8 64/111/8 58/100/8
f 59/101/8 58/100/8 60/102/8
f 61/103/8 60/102/8 62/104/8
f 63/105/8 62/104/8 64/106/8
f 59/108/8 61/103/8 63/105/8
f 60/102/8 58/112/8 64/110/8
o Cube_Cube.005
v 0.000000 0.000000 0.000000
v 0.000000 0.000000 0.000000
v 0.000000 0.000000 0.000000
v 0.000000 0.000000 0.000000
v 0.000000 0.000000 0.000000
v 0.000000 0.000000 0.000000
v 0.000000 0.000000 0.000000
v 0.000000 0.000000 0.000000
vt 0.375000 0.000000
vt 0.625000 0.250000
vt 0.375000 0.250000
vt 0.625000 0.500000
vt 0.375000 0.500000
vt 0.625000 0.750000
vt 0.375000 0.750000
vt 0.625000 1.000000
vt 0.375000 1.000000
vt 0.125000 0.500000
vt 0.125000 0.750000
vt 0.875000 0.750000
vt 0.625000 0.000000
vt 0.875000 0.500000
vn 0.0000 0.0000 1.0000
usemtl None.010
s 1
f 65/113/9 66/114/9 67/115/9
f 67/115/9 68/116/9 69/117/9
f 69/117/9 70/118/9 71/119/9
f 71/119/9 72/120/9 65/121/9
f 67/122/9 71/119/9 65/123/9
f 68/116/9 72/124/9 70/118/9
f 65/113/9 72/125/9 66/114/9
f 67/115/9 66/114/9 68/116/9
f 69/117/9 68/116/9 70/118/9
f 71/119/9 70/118/9 72/120/9
f 67/122/9 69/117/9 71/119/9
f 68/116/9 66/126/9 72/124/9
o Cube_Cube.006.005
v 0.000000 0.000000 0.000000
v 0.000000 0.000000 0.000000
v 0.000000 0.000000 0.000000
v 0.000000 0.000000 0.000000
v 0.000000 0.000000 0.000000
v 0.000000 0.000000 0.000000
v 0.000000 0.000000 0.000000
v 0.000000 0.000000 0.000000
vt 0.375000 0.000000
vt 0.625000 0.250000
vt 0.375000 0.250000
vt 0.625000 0.500000
vt 0.375000 0.500000
vt 0.625000 0.750000
vt 0.375000 0.750000
vt 0.625000 1.000000
vt 0.375000 1.000000
vt 0.125000 0.500000
vt 0.125000 0.750000
vt 0.875000 0.750000
vt 0.625000 0.000000
vt 0.875000 0.500000
vn 0.0000 0.0000 1.0000
usemtl None.011
s 1
f 73/127/10 74/128/10 75/129/10
f 75/129/10 76/130/10 77/131/10
f 77/131/10 78/132/10 79/133/10
f 79/133/10 80/134/10 73/135/10
f 75/136/10 79/133/10 73/137/10
f 76/130/10 80/138/10 78/132/10
f 73/127/10 80/139/10 74/128/10
f 75/129/10 74/128/10 76/130/10
f 77/131/10 76/130/10 78/132/10
f 79/133/10 78/132/10 80/134/10
f 75/136/10 77/131/10 79/133/10
f 76/130/10 74/140/10 80/138/10
o Cube.001_Cube.002
v -2.332393 2.079122 3.529921
v -2.332393 2.079122 3.470079
v -2.332393 0.304793 3.529921
v -2.332393 0.304793 3.470079
v -4.011759 2.079122 3.529921
v -4.011759 2.079122 3.470079
v -4.011759 0.304793 3.529921
v -4.011759 0.304793 3.470079
vt 0.625000 0.000000
vt 0.375000 0.000000
vt 0.375000 0.250000
vt 0.625000 0.250000
vt 0.375000 0.500000
vt 0.625000 0.500000
vt 0.375000 0.750000
vt 0.625000 0.750000
vt 0.375000 1.000000
vt 0.125000 0.500000
vt 0.125000 0.750000
vt 0.875000 0.500000
vt 0.625000 1.000000
vt 0.875000 0.750000
vn 1.0000 0.0000 0.0000
vn 0.0000 -1.0000 0.0000
vn -1.0000 0.0000 0.0000
vn 0.0000 1.0000 0.0000
vn 0.0000 0.0000 1.0000
vn 0.0000 0.0000 -1.0000
usemtl None
s off
f 82/141/11 81/142/11 83/143/11
f 84/144/12 83/143/12 87/145/12
f 88/146/13 87/145/13 85/147/13
f 86/148/14 85/147/14 81/149/14
f 87/145/15 83/150/15 81/151/15
f 84/152/16 88/146/16 86/148/16
f 82/141/11 83/143/11 84/144/11
f 84/144/12 87/145/12 88/146/12
f 88/146/13 85/147/13 86/148/13
f 86/148/14 81/149/14 82/153/14
f 87/145/15 81/151/15 85/147/15
f 84/152/16 86/148/16 82/154/16
o Cube.002_Cube.003
v 3.909703 2.079122 3.460310
v 3.909703 2.079122 3.539690
v 3.909703 0.304793 3.460310
v 3.909703 0.304793 3.539690
v 2.230337 2.079122 3.460310
v 2.230337 2.079122 3.539690
v 2.230337 0.304793 3.460310
v 2.230337 0.304793 3.539690
vt 0.625000 0.000000
vt 0.375000 0.250000
vt 0.375000 0.000000
vt 0.625000 0.250000
vt 0.375000 0.500000
vt 0.625000 0.500000
vt 0.375000 0.750000
vt 0.625000 0.750000
vt 0.375000 1.000000
vt 0.125000 0.750000
vt 0.125000 0.500000
vt 0.875000 0.500000
vt 0.625000 1.000000
vt 0.875000 0.750000
vn 1.0000 0.0000 0.0000
vn 0.0000 -1.0000 0.0000
vn -1.0000 0.0000 0.0000
vn 0.0000 1.0000 0.0000
vn 0.0000 0.0000 -1.0000
vn 0.0000 0.0000 1.0000
usemtl None
s off
f 90/155/17 91/156/17 89/157/17
f 92/158/18 95/159/18 91/156/18
f 96/160/19 93/161/19 95/159/19
f 94/162/20 89/163/20 93/161/20
f 95/159/21 89/164/21 91/165/21
f 92/166/22 94/162/22 96/160/22
f 90/155/17 92/158/17 91/156/17
f 92/158/18 96/160/18 95/159/18
f 96/160/19 94/162/19 93/161/19
f 94/162/20 90/167/20 89/163/20
f 95/159/21 93/161/21 89/164/21
f 92/166/22 90/168/22 94/162/22
o Cube.003_Cube.004
v 0.785483 -3.068743 3.450339
v 0.785483 -3.068743 3.549661
v 0.785483 -4.843072 3.450339
v 0.785483 -4.843072 3.549661
v -0.893883 -3.068743 3.450339
v -0.893883 -3.068743 3.549661
v -0.893883 -4.843072 3.450339
v -0.893883 -4.843072 3.549661
vt 0.625000 0.000000
vt 0.375000 0.250000
vt 0.375000 0.000000
vt 0.625000 0.250000
vt 0.375000 0.500000
vt 0.625000 0.500000
vt 0.375000 0.750000
vt 0.625000 0.750000
vt 0.375000 1.000000
vt 0.125000 0.750000
vt 0.125000 0.500000
vt 0.875000 0.500000
vt 0.625000 1.000000
vt 0.875000 0.750000
vn 1.0000 0.0000 0.0000
vn 0.0000 -1.0000 0.0000
vn -1.0000 0.0000 0.0000
vn 0.0000 1.0000 0.0000
vn 0.0000 0.0000 -1.0000
vn 0.0000 0.0000 1.0000
usemtl None
s off
f 98/169/23 99/170/23 97/171/23
f 100/172/24 103/173/24 99/170/24
f 104/174/25 101/175/25 103/173/25
f 102/176/26 97/177/26 101/175/26
f 103/173/27 97/178/27 99/179/27
f 100/180/28 102/176/28 104/174/28
f 98/169/23 100/172/23 99/170/23
f 100/172/24 104/174/24 103/173/24
f 104/174/25 102/176/25 101/175/25
f 102/176/26 98/181/26 97/177/26
f 103/173/27 101/175/27 97/178/27
f 100/180/28 98/182/28 102/176/28
