# Blender v3.1.2 OBJ File: ''
# www.blender.org
mtllib tunnel.mtl
o Cube_Cube.006
v 0.000000 0.000000 0.000000
v 0.000000 0.000000 0.000000
v 0.000000 0.000000 0.000000
v 0.000000 0.000000 0.000000
v 0.000000 0.000000 0.000000
v 0.000000 0.000000 0.000000
v 0.000000 0.000000 0.000000
v 0.000000 0.000000 0.000000
vt 0.375000 0.000000
vt 0.625000 0.250000
vt 0.375000 0.250000
vt 0.625000 0.500000
vt 0.375000 0.500000
vt 0.625000 0.750000
vt 0.375000 0.750000
vt 0.625000 1.000000
vt 0.375000 1.000000
vt 0.125000 0.500000
vt 0.125000 0.750000
vt 0.875000 0.750000
vt 0.625000 0.000000
vt 0.875000 0.500000
vn 0.0000 0.0000 1.0000
usemtl None
s off
f 1/1/1 4/2/1 3/3/1
f 3/3/1 8/4/1 7/5/1
f 7/5/1 6/6/1 5/7/1
f 5/7/1 2/8/1 1/9/1
f 3/10/1 5/7/1 1/11/1
f 8/4/1 2/12/1 6/6/1
f 1/1/1 2/13/1 4/2/1
f 3/3/1 4/2/1 8/4/1
f 7/5/1 8/4/1 6/6/1
f 5/7/1 6/6/1 2/8/1
f 3/10/1 7/5/1 5/7/1
f 8/4/1 4/14/1 2/12/1
o Cube_Cube.006
v 0.000000 0.000000 0.000000
v 0.000000 0.000000 0.000000
v 0.000000 0.000000 0.000000
v 0.000000 0.000000 0.000000
v 0.000000 0.000000 0.000000
v 0.000000 0.000000 0.000000
v 0.000000 0.000000 0.000000
v 0.000000 0.000000 0.000000
vt 0.375000 0.000000
vt 0.625000 0.250000
vt 0.375000 0.250000
vt 0.625000 0.500000
vt 0.375000 0.500000
vt 0.625000 0.750000
vt 0.375000 0.750000
vt 0.625000 1.000000
vt 0.375000 1.000000
vt 0.125000 0.500000
vt 0.125000 0.750000
vt 0.875000 0.750000
vt 0.625000 0.000000
vt 0.875000 0.500000
vn 0.0000 0.0000 1.0000
usemtl None.002
s off
f 9/15/2 10/16/2 11/17/2
f 11/17/2 12/18/2 13/19/2
f 13/19/2 14/20/2 15/21/2
f 15/21/2 16/22/2 9/23/2
f 11/24/2 15/21/2 9/25/2
f 12/18/2 16/26/2 14/20/2
f 9/15/2 16/27/2 10/16/2
f 11/17/2 10/16/2 12/18/2
f 13/19/2 12/18/2 14/20/2
f 15/21/2 14/20/2 16/22/2
f 11/24/2 13/19/2 15/21/2
f 12/18/2 10/28/2 16/26/2
o Cube_Cube.002
v 0.000000 0.000000 0.000000
v 0.000000 0.000000 0.000000
v 0.000000 0.000000 0.000000
v 0.000000 0.000000 0.000000
v 0.000000 0.000000 0.000000
v 0.000000 0.000000 0.000000
v 0.000000 0.000000 0.000000
v 0.000000 0.000000 0.000000
vt 0.375000 0.000000
vt 0.625000 0.250000
vt 0.375000 0.250000
vt 0.625000 0.500000
vt 0.375000 0.500000
vt 0.625000 0.750000
vt 0.375000 0.750000
vt 0.625000 1.000000
vt 0.375000 1.000000
vt 0.125000 0.500000
vt 0.125000 0.750000
vt 0.875000 0.750000
vt 0.625000 0.000000
vt 0.875000 0.500000
vn 0.0000 0.0000 1.0000
usemtl None.003
s 1
f 17/29/3 18/30/3 19/31/3
f 19/31/3 20/32/3 21/33/3
f 21/33/3 22/34/3 23/35/3
f 23/35/3 24/36/3 17/37/3
f 19/38/3 23/35/3 17/39/3
f 20/32/3 24/40/3 22/34/3
f 17/29/3 24/41/3 18/30/3
f 19/31/3 18/30/3 20/32/3
f 21/33/3 20/32/3 22/34/3
f 23/35/3 22/34/3 24/36/3
f 19/38/3 21/33/3 23/35/3
f 20/32/3 18/42/3 24/40/3
o Cube_Cube.006.000
v 0.000000 0.000000 0.000000
v 0.000000 0.000000 0.000000
v 0.000000 0.000000 0.000000
v 0.000000 0.000000 0.000000
v 0.000000 0.000000 0.000000
v 0.000000 0.000000 0.000000
v 0.000000 0.000000 0.000000
v 0.000000 0.000000 0.000000
vt 0.375000 0.000000
vt 0.625000 0.250000
vt 0.375000 0.250000
vt 0.625000 0.500000
vt 0.375000 0.500000
vt 0.625000 0.750000
vt 0.375000 0.750000
vt 0.625000 1.000000
vt 0.375000 1.000000
vt 0.125000 0.500000
vt 0.125000 0.750000
vt 0.875000 0.750000
vt 0.625000 0.000000
vt 0.875000 0.500000
vn 0.0000 0.0000 1.0000
usemtl None.004
s 1
f 25/43/4 26/44/4 27/45/4
f 27/45/4 28/46/4 29/47/4
f 29/47/4 30/48/4 31/49/4
f 31/49/4 32/50/4 25/51/4
f 27/52/4 31/49/4 25/53/4
f 28/46/4 32/54/4 30/48/4
f 25/43/4 32/55/4 26/44/4
f 27/45/4 26/44/4 28/46/4
f 29/47/4 28/46/4 30/48/4
f 31/49/4 30/48/4 32/50/4
f 27/52/4 29/47/4 31/49/4
f 28/46/4 26/56/4 32/54/4
o Cube_Cube.003
v 0.000000 0.000000 0.000000
v 0.000000 0.000000 0.000000
v 0.000000 0.000000 0.000000
v 0.000000 0.000000 0.000000
v 0.000000 0.000000 0.000000
v 0.000000 0.000000 0.000000
v 0.000000 0.000000 0.000000
v 0.000000 0.000000 0.000000
vt 0.375000 0.000000
vt 0.625000 0.250000
vt 0.375000 0.250000
vt 0.625000 0.500000
vt 0.375000 0.500000
vt 0.625000 0.750000
vt 0.375000 0.750000
vt 0.625000 1.000000
vt 0.375000 1.000000
vt 0.125000 0.500000
vt 0.125000 0.750000
vt 0.875000 0.750000
vt 0.625000 0.000000
vt 0.875000 0.500000
vn 0.0000 0.0000 1.0000
usemtl None.005
s 1
f 33/57/5 34/58/5 35/59/5
f 35/59/5 36/60/5 37/61/5
f 37/61/5 38/62/5 39/63/5
f 39/63/5 40/64/5 33/65/5
f 35/66/5 39/63/5 33/67/5
f 36/60/5 40/68/5 38/62/5
f 33/57/5 40/69/5 34/58/5
f 35/59/5 34/58/5 36/60/5
f 37/61/5 36/60/5 38/62/5
f 39/63/5 38/62/5 40/64/5
f 35/66/5 37/61/5 39/63/5
f 36/60/5 34/70/5 40/68/5
o Cube_Cube.006.001
v 0.000000 0.000000 0.000000
v 0.000000 0.000000 0.000000
v 0.000000 0.000000 0.000000
v 0.000000 0.000000 0.000000
v 0.000000 0.000000 0.000000
v 0.000000 0.000000 0.000000
v 0.000000 0.000000 0.000000
v 0.000000 0.000000 0.000000
vt 0.375000 0.000000
vt 0.625000 0.250000
vt 0.375000 0.250000
vt 0.625000 0.500000
vt 0.375000 0.500000
vt 0.625000 0.750000
vt 0.375000 0.750000
vt 0.625000 1.000000
vt 0.375000 1.000000
vt 0.125000 0.500000
vt 0.125000 0.750000
vt 0.875000 0.750000
vt 0.625000 0.000000
vt 0.875000 0.500000
vn 0.0000 0.0000 1.0000
usemtl None.006
s 1
f 41/71/6 42/72/6 43/73/6
f 43/73/6 44/74/6 45/75/6
f 45/75/6 46/76/6 47/77/6
f 47/77/6 48/78/6 41/79/6
f 43/80/6 47/77/6 41/81/6
f 44/74/6 48/82/6 46/76/6
f 41/71/6 48/83/6 42/72/6
f 43/73/6 42/72/6 44/74/6
f 45/75/6 44/74/6 46/76/6
f 47/77/6 46/76/6 48/78/6
f 43/80/6 45/75/6 47/77/6
f 44/74/6 42/84/6 48/82/6
o Cube.001_Cube.027
v 1.087883 11.963421 -0.039848
v 1.087883 11.963421 2.410813
v 1.087883 6.020687 -0.039848
v 1.087883 6.020687 2.410813
v 0.858922 11.963421 -0.039848
v 0.858922 11.963421 2.410813
v 0.858922 6.020687 -0.039848
v 0.858922 6.020687 2.410813
vt 0.625000 0.000000
vt 0.375000 0.250000
vt 0.375000 0.000000
vt 0.625000 0.250000
vt 0.375000 0.500000
vt 0.625000 0.500000
vt 0.375000 0.750000
vt 0.625000 0.750000
vt 0.375000 1.000000
vt 0.125000 0.750000
vt 0.125000 0.500000
vt 0.875000 0.500000
vt 0.625000 1.000000
vt 0.875000 0.750000
vn 1.0000 0.0000 0.0000
vn 0.0000 -1.0000 0.0000
vn -1.0000 0.0000 0.0000
vn 0.0000 1.0000 0.0000
vn 0.0000 0.0000 -1.0000
vn 0.0000 0.0000 1.0000
usemtl None
s off
f 50/85/7 51/86/7 49/87/7
f 52/88/8 55/89/8 51/86/8
f 56/90/9 53/91/9 55/89/9
f 54/92/10 49/93/10 53/91/10
f 55/89/11 49/94/11 51/95/11
f 52/96/12 54/92/12 56/90/12
f 50/85/7 52/88/7 51/86/7
f 52/88/8 56/90/8 55/89/8
f 56/90/9 54/92/9 53/91/9
f 54/92/10 50/97/10 49/93/10
f 55/89/11 53/91/11 49/94/11
f 52/96/12 50/98/12 54/92/12
o Cube.002_Cube.028
v -0.856999 11.963421 -0.039848
v -0.856999 11.963421 2.410813
v -0.856999 6.020687 -0.039848
v -0.856999 6.020687 2.410813
v -1.085959 11.963421 -0.039848
v -1.085959 11.963421 2.410813
v -1.085959 6.020687 -0.039848
v -1.085959 6.020687 2.410813
vt 0.625000 0.000000
vt 0.375000 0.250000
vt 0.375000 0.000000
vt 0.625000 0.250000
vt 0.375000 0.500000
vt 0.625000 0.500000
vt 0.375000 0.750000
vt 0.625000 0.750000
vt 0.375000 1.000000
vt 0.125000 0.750000
vt 0.125000 0.500000
vt 0.875000 0.500000
vt 0.625000 1.000000
vt 0.875000 0.750000
vn 1.0000 0.0000 0.0000
vn 0.0000 -1.0000 0.0000
vn -1.0000 0.0000 0.0000
vn 0.0000 1.0000 0.0000
vn 0.0000 0.0000 -1.0000
vn 0.0000 0.0000 1.0000
usemtl None
s off
f 58/99/13 59/100/13 57/101/13
f 60/102/14 63/103/14 59/100/14
f 64/104/15 61/105/15 63/103/15
f 62/106/16 57/107/16 61/105/16
f 63/103/17 57/108/17 59/109/17
f 60/110/18 62/106/18 64/104/18
f 58/99/13 60/102/13 59/100/13
f 60/102/14 64/104/14 63/103/14
f 64/104/15 62/106/15 61/105/15
f 62/106/16 58/111/16 57/107/16
f 63/103/17 61/105/17 57/108/17
f 60/110/18 58/112/18 62/106/18
o Cube.003_Cube.029
v -0.856999 -6.033480 -0.039848
v -0.856999 -6.033480 2.410813
v -0.856999 -11.976215 -0.039848
v -0.856999 -11.976215 2.410813
v -1.085959 -6.033480 -0.039848
v -1.085959 -6.033480 2.410813
v -1.085959 -11.976215 -0.039848
v -1.085959 -11.976215 2.410813
vt 0.625000 0.000000
vt 0.375000 0.250000
vt 0.375000 0.000000
vt 0.625000 0.250000
vt 0.375000 0.500000
vt 0.625000 0.500000
vt 0.375000 0.750000
vt 0.625000 0.750000
vt 0.375000 1.000000
vt 0.125000 0.750000
vt 0.125000 0.500000
vt 0.875000 0.500000
vt 0.625000 1.000000
vt 0.875000 0.750000
vn 1.0000 0.0000 0.0000
vn 0.0000 -1.0000 0.0000
vn -1.0000 0.0000 0.0000
vn 0.0000 1.0000 0.0000
vn 0.0000 0.0000 -1.0000
vn 0.0000 0.0000 1.0000
usemtl None
s off
f 66/113/19 67/114/19 65/115/19
f 68/116/20 71/117/20 67/114/20
f 72/118/21 69/119/21 71/117/21
f 70/120/22 65/121/22 69/119/22
f 71/117/23 65/122/23 67/123/23
f 68/124/24 70/120/24 72/118/24
f 66/113/19 68/116/19 67/114/19
f 68/116/20 72/118/20 71/117/20
f 72/118/21 70/120/21 69/119/21
f 70/120/22 66/125/22 65/121/22
f 71/117/23 69/119/23 65/122/23
f 68/124/24 66/126/24 70/120/24
o Cube.004_Cube.030
v 1.107890 -6.054227 -0.039848
v 1.107890 -6.054227 2.410813
v 1.107890 -11.996962 -0.039848
v 1.107890 -11.996962 2.410813
v 0.878930 -6.054227 -0.039848
v 0.878930 -6.054227 2.410813
v 0.878930 -11.996962 -0.039848
v 0.878930 -11.996962 2.410813
vt 0.625000 0.000000
vt 0.375000 0.250000
vt 0.375000 0.000000
vt 0.625000 0.250000
vt 0.375000 0.500000
vt 0.625000 0.500000
vt 0.375000 0.750000
vt 0.625000 0.750000
vt 0.375000 1.000000
vt 0.125000 0.750000
vt 0.125000 0.500000
vt 0.875000 0.500000
vt 0.625000 1.000000
vt 0.875000 0.750000
vn 1.0000 0.0000 0.0000
vn 0.0000 -1.0000 0.0000
vn -1.0000 0.0000 0.0000
vn 0.0000 1.0000 0.0000
vn 0.0000 0.0000 -1.0000
vn 0.0000 0.0000 1.0000
usemtl None
s off
f 74/127/25 75/128/25 73/129/25
f 76/130/26 79/131/26 75/128/26
f 80/132/27 77/133/27 79/131/27
f 78/134/28 73/135/28 77/133/28
f 79/131/29 73/136/29 75/137/29
f 76/138/30 78/134/30 80/132/30
f 74/127/25 76/130/25 75/128/25
f 76/130/26 80/132/26 79/131/26
f 80/132/27 78/134/27 77/133/27
f 78/134/28 74/139/28 73/135/28
f 79/131/29 77/133/29 73/136/29
f 76/138/30 74/140/30 78/134/30
